<?xml version="1.0" encoding="UTF-8"?>
<!DOCTYPE svg PUBLIC "-//W3C//DTD SVG 1.1//EN" "http://www.w3.org/Graphics/SVG/1.1/DTD/svg11.dtd">
<!-- Creator: CorelDRAW (Versión OEM) -->
<svg xmlns="http://www.w3.org/2000/svg" xml:space="preserve" width="26.0947mm" height="25.4mm" version="1.1" style="shape-rendering:geometricPrecision; text-rendering:geometricPrecision; image-rendering:optimizeQuality; fill-rule:evenodd; clip-rule:evenodd"
viewBox="0 0 65486.96 63743.54"
 xmlns:xlink="http://www.w3.org/1999/xlink"
 xmlns:xodm="http://www.corel.com/coreldraw/odm/2003">
 <defs>
  <style type="text/css">
   <![CDATA[
    .fil2 {fill:#00B6DA}
    .fil0 {fill:#373435;fill-rule:nonzero}
    .fil3 {fill:#00B6DA;fill-rule:nonzero}
    .fil1 {fill:#106392;fill-rule:nonzero}
    .fil4 {fill:#00B5D9;fill-rule:nonzero}
   ]]>
  </style>
 </defs>
 <g id="Capa_x0020_1">
  <metadata id="CorelCorpID_0Corel-Layer"/>
  <g id="_1740586621776">
   <path class="fil0" d="M410.82 62340.43c-114.69,0 -211.81,-40.15 -291.36,-119.46 -79.55,-79.8 -119.21,-176.93 -119.21,-291.11l0 -4404.33c0,-114.44 39.65,-211.31 119.21,-291.36 79.55,-79.3 176.68,-119.21 291.36,-119.21l2440.83 0c109.42,0 205.54,39.9 287.6,119.21 81.81,80.06 122.97,176.93 122.97,291.36 0,114.44 -41.16,212.81 -122.97,294.88 -82.06,82.06 -178.18,123.22 -287.6,123.22l-2022.98 0 0 1365.72 1739.4 0c109.17,0 205.28,41.16 287.35,123.47 82.31,82.06 123.22,178.93 123.22,291.11 0,111.68 -39.65,208.8 -119.46,290.86 -79.55,82.31 -176.93,123.47 -291.11,123.47l-1739.4 0 0 1373.5 2022.98 0c109.42,0 205.54,40.91 287.6,122.97 81.81,82.06 122.97,179.18 122.97,291.11 0,111.93 -41.16,209.05 -122.97,291.11 -82.06,82.06 -178.18,123.47 -287.6,123.47l-2418.49 0 -15.06 -7.78 -7.28 7.78z"/>
   <path class="fil0" d="M6650.91 59018.49c89.59,59.73 145.81,143.05 168.14,249.96 22.34,106.91 6.27,207.79 -48.69,302.41 -59.73,89.59 -143.05,145.56 -249.96,168.14 -107.16,22.08 -207.79,0.75 -302.15,-63.99 -278.82,-183.7 -508.94,-275.8 -690.64,-275.8 -181.69,0 -329.76,44.67 -444.2,134.26 -79.55,54.71 -119.21,103.65 -119.21,145.56 0,42.16 6.02,73.53 18.57,93.36 12.3,20.08 38.65,42.41 78.3,67.01 109.67,74.53 291.11,134.26 545.08,179.18l7.53 7.53 7.28 0c263.76,49.94 504.93,124.48 724.02,224.11 219.09,99.38 380.7,236.4 485.35,410.57 104.4,174.17 156.6,346.07 156.6,514.97 0,348.33 -156.6,636.93 -470.05,866.06 -289.1,199.01 -612.34,298.64 -970.46,298.64 -463.02,-5.27 -905.96,-176.93 -1328.83,-515.47 -79.8,-64.5 -125.73,-152.83 -138.03,-264.76 -12.55,-111.93 16.06,-207.79 85.83,-287.6 64.5,-89.34 154.09,-139.03 268.53,-149.07 114.44,-10.04 211.56,19.83 291.11,89.59 268.78,223.86 542.57,333.52 821.39,328.25 188.97,0 358.12,-47.18 507.44,-141.79 89.59,-74.53 134.51,-138.03 134.51,-190.23 0,-52.2 -7.78,-88.09 -22.59,-108.41 -10.04,-24.84 -42.16,-54.71 -96.87,-89.59 -119.46,-84.32 -318.72,-154.09 -597.03,-208.8l-7.78 0c-263.76,-49.69 -493.89,-121.97 -690.39,-216.33 -196.5,-94.61 -354.6,-231.64 -474.31,-410.82 -84.57,-139.28 -126.48,-296.13 -126.48,-470.3 0,-323.49 146.56,-597.03 440.18,-820.89 268.78,-184.2 575.95,-276.31 921.77,-276.31 346.07,0 717.99,137.02 1116.01,410.57z"/>
   <path class="fil0" d="M8315.52 61791.59c-373.18,-365.65 -559.64,-805.08 -559.64,-1317.53 0,-512.21 186.46,-950.38 559.64,-1313.77 373.43,-363.14 818.88,-547.59 1336.36,-552.36 432.9,0 828.42,137.02 1186.78,410.32 84.57,65 134.51,153.08 149.32,265.26 15.06,111.93 -11.04,210.3 -78.3,294.63 -67.26,84.82 -154.34,134.51 -261.5,149.32 -106.91,15.06 -202.52,-12.3 -287.1,-81.81 -219.09,-159.36 -466.53,-238.91 -743.09,-238.91 -275.8,0 -523.5,106.91 -742.34,320.73 -219.34,214.07 -328.51,465.53 -328.51,753.88 0,289.1 108.16,538.81 324.74,750.12 216.33,212.06 464.02,317.46 742.59,317.46 278.56,0 527.52,-79.55 746.6,-238.91 79.55,-64.5 174.17,-89.34 283.58,-74.53 109.42,14.81 197.76,64.75 265.01,149.07 67.26,84.82 93.36,180.69 78.3,287.6 -14.81,107.16 -64.75,198.01 -149.32,272.54 -368.16,263.76 -763.67,395.76 -1186.78,395.76 -517.48,0 -962.93,-183.2 -1336.36,-548.85z"/>
   <path class="fil0" d="M15332.58 60787.5c0,422.87 -155.59,787.51 -466.78,1093.68 -310.94,306.17 -679.09,459.25 -1104.72,459.25 -425.38,0 -791.27,-152.08 -1097.19,-455.74 -306.17,-303.41 -459.25,-669.06 -459.25,-1097.19l0 -1783.82c0,-104.9 38.4,-197 115.94,-276.31 77.04,-79.8 170.15,-119.46 279.82,-119.46 109.42,0 202.77,39.65 279.57,119.46 77.3,79.3 115.94,171.4 115.94,276.31l0 1783.82c0,214.07 73.28,394.51 220.34,541.07 146.81,147.06 327,220.34 541.07,220.34 213.82,0 396.77,-73.28 548.6,-220.34 152.08,-146.56 230.13,-327 235.4,-541.07l0 -1783.82c0,-104.9 37.14,-197 111.93,-276.31 74.53,-79.8 165.13,-119.46 272.29,-119.46 106.91,0 201.52,39.65 283.83,119.46 81.81,79.3 123.22,171.4 123.22,276.31l0 1783.82z"/>
   <path class="fil0" d="M18415.36 59316.88c-288.6,15.06 -519.99,104.4 -694.15,269.03 -174.42,163.88 -279.07,338.04 -313.45,522.5l2112.32 0c-44.67,-174.17 -165.38,-343.56 -362.13,-507.69 -196.5,-164.38 -443.95,-258.74 -742.59,-283.83zm1798.62 1060.05c0,109.67 -35.89,197.76 -107.91,264.76 -72.03,67.51 -167.89,101.14 -287.35,101.14l-2373.82 0c44.67,213.82 129.49,378.45 253.72,492.63 159.11,184.2 392.25,294.88 697.92,332.02 305.92,37.64 571.43,-23.34 795.04,-182.95 74.79,-79.3 174.17,-119.21 298.64,-119.21 124.48,0 211.31,32.37 261.25,96.87 139.28,154.59 139.28,316.21 0,485.1 -358.37,328.76 -797.8,491.88 -1317.28,489.12 -520.24,-2.26 -955.65,-185.46 -1306.49,-548.85 -350.84,-362.89 -528.77,-801.06 -533.54,-1313.52 4.77,-512.21 182.7,-951.89 533.54,-1317.53 350.84,-365.65 774.96,-548.6 1272.61,-548.6 497.65,0 917,163.12 1257.81,488.87 340.8,325.74 526.26,740.33 555.87,1242.75l0 37.39z"/>
   <path class="fil0" d="M21453.47 57525.54c0,-114.44 39.65,-211.31 119.46,-291.36 79.3,-79.3 176.42,-119.21 290.86,-119.21 114.69,0 213.06,39.9 295.13,119.21 82.06,80.06 122.97,176.93 122.97,291.36l0 4404.33c0,114.19 -40.91,211.31 -122.97,290.86 -82.06,79.55 -180.44,119.46 -295.13,119.46 -114.44,0 -211.56,-39.9 -290.86,-119.46 -79.8,-79.55 -119.46,-176.68 -119.46,-290.86l0 -4404.33z"/>
   <path class="fil0" d="M23662.66 60477.82c0,301.15 90.85,553.36 272.79,757.64 181.44,204.03 415.34,305.92 701.68,305.92 286.09,0 522.75,-101.89 708.96,-305.92 186.71,-204.28 280.07,-455.49 280.07,-753.88 0,-298.64 -94.61,-552.61 -283.58,-761.66 -189.22,-208.8 -424.37,-313.2 -705.45,-313.2 -281.07,0 -513.96,103.14 -697.92,309.68 -184.2,206.79 -276.56,460.26 -276.56,761.41zm-286.85 1317.28c-341.3,-362.89 -511.71,-802.32 -511.71,-1317.28 0,-515.22 170.4,-955.65 511.71,-1321.3 340.55,-365.65 762.41,-548.6 1265.08,-548.6 353.35,0 683.86,109.67 992.79,328.51 24.84,-94.61 71.77,-172.91 141.79,-235.4 69.52,-61.99 155.34,-93.11 257.48,-93.11 101.89,0 191.48,39.65 268.78,119.46 77.04,79.3 115.44,174.17 115.44,283.58l0 2933.71c0,109.42 -38.4,202.77 -115.44,279.57 -77.3,77.55 -166.89,116.19 -268.78,116.19 -102.14,0 -187.97,-30.12 -257.48,-89.84 -70.02,-59.73 -116.95,-136.52 -141.79,-231.38 -303.66,214.07 -634.67,321.23 -992.79,321.23 -502.67,0 -924.53,-181.95 -1265.08,-545.33z"/>
   <path class="fil0" d="M31030.56 57943.64l0 3568.13 462.77 0c492.88,-5.27 911.98,-180.44 1257.81,-526.51 345.82,-345.57 518.98,-764.92 518.98,-1257.81 0,-492.38 -173.16,-913.24 -518.98,-1261.32 -345.82,-348.58 -764.92,-522.5 -1257.81,-522.5l-462.77 0zm-828.42 3986.23l0 -4404.33c0,-114.44 39.4,-211.56 119.21,-291.36 79.3,-79.3 176.93,-119.21 291.36,-119.21l880.61 0c721.51,0 1336.1,254.97 1843.79,764.92 507.69,510.45 761.41,1126.3 761.41,1847.56 0,721.51 -253.72,1337.61 -761.41,1847.56 -507.69,510.2 -1122.29,765.42 -1843.79,765.42l-880.61 0c-114.44,0 -212.06,-40.15 -291.36,-119.46 -79.8,-79.8 -119.21,-176.93 -119.21,-291.11z"/>
   <path class="fil0" d="M37046.79 59316.88c-288.6,15.06 -519.74,104.4 -694.15,269.03 -174.42,163.88 -278.82,338.04 -313.2,522.5l2112.32 0c-44.92,-174.17 -165.63,-343.56 -362.13,-507.69 -196.75,-164.38 -444.2,-258.74 -742.84,-283.83zm1798.87 1060.05c0,109.67 -35.89,197.76 -107.91,264.76 -72.28,67.51 -168.14,101.14 -287.6,101.14l-2373.57 0c44.67,213.82 129.24,378.45 253.72,492.63 159.11,184.2 392,294.88 697.92,332.02 305.92,37.64 571.18,-23.34 794.79,-182.95 75.04,-79.3 174.42,-119.21 298.89,-119.21 124.22,0 211.31,32.37 261.25,96.87 139.28,154.59 139.28,316.21 0,485.1 -358.37,328.76 -797.8,491.88 -1317.53,489.12 -520.24,-2.26 -955.4,-185.46 -1306.49,-548.85 -350.84,-362.89 -528.52,-801.06 -533.54,-1313.52 5.02,-512.21 182.7,-951.89 533.54,-1317.53 351.09,-365.65 775.21,-548.6 1272.61,-548.6 497.9,0 917,163.12 1257.81,488.87 341.3,325.74 526.26,740.33 556.12,1242.75l0 37.39z"/>
   <path class="fil0" d="M42555.84 59727.45c-194.24,-203.78 -430.65,-306.17 -708.96,-306.17 -279.07,0 -514.21,103.65 -705.45,310.19 -191.98,206.29 -287.6,464.02 -287.6,772.45 0,308.43 97.12,549.85 291.11,724.02 189.22,209.05 421.86,313.45 697.92,313.45 276.31,0 512.46,-104.4 709.21,-313.45 196.5,-209.05 294.88,-456.49 294.88,-742.84 0,-286.09 -97.12,-538.56 -291.11,-757.64zm-1824.97 3892.87c-82.06,82.06 -179.44,123.47 -291.36,123.47 -111.93,0 -207.79,-41.41 -287.1,-123.47 -79.8,-81.81 -119.46,-175.42 -119.46,-279.82l0 -4336.82c0,-109.67 38.4,-203.03 115.44,-280.07 77.3,-77.04 169.15,-115.69 276.05,-115.69 107.16,0 199.26,29.86 276.31,89.59 77.3,59.48 123.22,131.75 138.03,216.33 313.7,-204.03 651.99,-305.92 1015.38,-305.92 497.65,0 923.03,184.2 1276.38,552.36 353.35,368.16 530.03,808.59 530.03,1321.05 0,512.71 -176.68,949.63 -530.03,1310.26 -353.35,360.88 -778.73,541.07 -1276.38,541.07 -383.21,0 -716.74,-101.89 -1000.32,-305.92l0 1313.77c0,104.4 -41.16,198.01 -122.97,279.82z"/>
   <path class="fil0" d="M45870.26 59705.12c-179.18,208.8 -268.78,468.04 -268.78,776.22 0,308.93 89.59,572.44 268.78,791.27 193.99,184.45 427.88,276.05 701.68,276.05 273.55,0 507.69,-91.6 701.68,-276.05 193.99,-218.84 291.11,-482.34 291.11,-791.27 0,-308.18 -97.12,-567.42 -291.11,-776.22 -214.07,-189.22 -447.96,-283.83 -701.68,-283.83 -253.97,0 -487.86,94.61 -701.68,283.83zm716.49 2657.4c-502.67,0 -928.3,-183.95 -1276.38,-552.36 -348.58,-368.41 -522.5,-808.59 -522.5,-1321.3 0,-512.46 175.42,-954.15 526.01,-1324.81 351.09,-370.92 772.95,-556.12 1265.33,-556.12 492.88,0 911.98,187.72 1257.81,563.4 345.82,375.94 518.73,822.64 518.73,1339.87 0,517.98 -174.17,945.86 -522.25,1283.91 -328.51,378.45 -744.34,567.42 -1246.76,567.42z"/>
   <path class="fil0" d="M50430.93 59055.88c114.69,-134.51 271.29,-242.93 470.3,-324.74 199.01,-82.31 380.7,-122.22 545.08,-119.71 164.13,2.76 284.84,41.41 362.13,115.94 76.79,74.28 115.44,165.13 115.44,272.04 0,107.41 -38.65,200.77 -115.44,280.32 -77.3,79.8 -170.65,119.46 -280.07,119.46 -462.77,0 -828.67,375.69 -1097.44,1127.06l0 1418.42c0,109.67 -39.65,202.77 -119.21,279.82 -79.8,77.3 -175.42,115.94 -287.6,115.94 -111.68,0 -206.54,-38.65 -283.58,-115.94 -77.04,-77.04 -115.44,-170.15 -115.44,-279.82l0 -2940.99c0,-109.67 38.4,-202.02 115.44,-276.31 77.04,-74.53 171.91,-112.18 283.58,-112.18 112.18,0 207.79,37.64 287.6,112.18 79.55,74.28 119.21,166.64 119.21,276.31l0 52.2z"/>
   <path class="fil0" d="M54163.44 58607.92c114.44,0 212.56,39.65 294.88,119.46 82.31,79.3 123.22,175.17 123.22,287.35 0,111.93 -40.91,208.8 -123.22,291.36 -82.31,81.81 -180.44,122.72 -294.88,122.72l-186.71 0 0 2082.96c114.44,0 211.56,40.91 291.11,122.97 79.8,82.06 119.46,180.44 119.46,295.13 0,114.19 -39.65,211.31 -119.46,291.11 -79.55,79.3 -176.68,119.46 -291.11,119.46 -228.87,0 -424.37,-80.81 -585.99,-242.93 -161.87,-161.62 -242.43,-356.86 -242.43,-585.74l0 -2082.96 -216.58 0c-114.69,0 -211.56,-39.65 -291.11,-119.46 -79.55,-79.3 -119.21,-176.42 -119.21,-291.11 0,-114.19 39.65,-211.56 119.21,-290.86 79.55,-79.8 176.42,-119.46 291.11,-119.46l216.58 0 0 -1082.39c0,-114.44 41.16,-211.31 122.97,-291.36 82.31,-79.3 180.19,-119.21 294.88,-119.21 114.69,0 211.56,39.9 291.11,119.21 79.8,80.06 119.46,176.93 119.46,291.36l0 1082.39 186.71 0z"/>
   <path class="fil0" d="M56011 58731.14c77.3,-77.3 172.91,-115.94 287.35,-115.94 114.44,0 210.3,38.65 287.6,115.94 77.04,77.04 115.69,175.17 115.69,294.63l0 2911.37c0,114.44 -38.65,210.3 -115.69,287.1 -77.3,77.3 -171.91,115.94 -283.83,115.94 -111.93,0 -207.79,-39.9 -287.35,-119.46 -79.8,-79.55 -119.46,-174.17 -119.46,-283.58l0 -2911.37c0,-119.46 38.4,-217.58 115.69,-294.63zm690.64 -1213.14l0 156.6c0,114.44 -38.65,211.56 -115.69,291.11 -77.3,79.8 -171.91,119.71 -283.83,119.71 -111.93,0 -207.79,-39.9 -287.35,-119.71 -79.8,-79.55 -119.46,-176.68 -119.46,-291.11l0 -156.6c0,-109.67 39.65,-203.78 119.46,-283.83 79.55,-79.3 175.42,-119.21 287.35,-119.21 111.93,0 206.54,38.4 283.83,115.69 77.04,77.04 115.69,172.91 115.69,287.35z"/>
   <path class="fil0" d="M59194.41 62310.32c-84.57,-39.9 -133.26,-73.28 -145.31,-100.89 -12.55,-27.35 -21.33,-43.42 -26.1,-48.18 -15.06,-5.27 -27.35,-25.1 -37.39,-59.98l-1209.12 -2896.32c-44.92,-99.63 -46.43,-197.5 -4.02,-294.63 42.41,-97.37 115.69,-168.39 220.09,-213.06 89.84,-44.67 184.2,-44.67 283.83,0 99.38,44.67 171.66,116.95 216.58,216.58l858.03 2030.51 866.31 -2030.51c39.9,-99.63 108.16,-171.91 205.28,-216.58 96.87,-44.67 196.5,-44.67 298.39,0 102.14,44.67 174.17,115.69 216.58,213.06 42.41,97.12 40.91,195 -3.76,294.63l-1223.93 2896.32c-10.29,25.1 -20.08,42.16 -30.12,52.45 -10.04,9.79 -19.83,21.08 -29.86,33.63 -9.79,12.3 -26.1,28.36 -48.44,48.44 -22.34,19.83 -38.65,35.89 -48.69,48.18 -10.04,12.8 -22.34,21.58 -37.14,26.35l-15.06 0 0 7.28c-19.83,0 -39.9,5.02 -59.73,15.06l-14.81 0c-19.83,5.02 -43.67,7.78 -71.02,7.78 -27.35,0 -50.94,-2.76 -71.02,-7.78l-14.81 0c-29.86,-10.04 -49.69,-15.06 -59.73,-15.06l0 -7.28 -15.06 0z"/>
   <path class="fil0" d="M62732.43 60477.82c0,301.15 90.85,553.36 272.79,757.64 181.44,204.03 415.34,305.92 701.43,305.92 286.34,0 522.75,-101.89 709.21,-305.92 186.71,-204.28 279.82,-455.49 279.82,-753.88 0,-298.64 -94.36,-552.61 -283.58,-761.66 -189.22,-208.8 -424.12,-313.2 -705.45,-313.2 -281.07,0 -513.71,103.14 -697.92,309.68 -183.95,206.79 -276.31,460.26 -276.31,761.41zm-287.1 1317.28c-341.05,-362.89 -511.45,-802.32 -511.45,-1317.28 0,-515.22 170.4,-955.65 511.45,-1321.3 340.8,-365.65 762.66,-548.6 1265.33,-548.6 353.1,0 683.86,109.67 992.79,328.51 24.84,-94.61 71.77,-172.91 141.79,-235.4 69.52,-61.99 155.34,-93.11 257.48,-93.11 101.89,0 191.23,39.65 268.53,119.46 77.3,79.3 115.69,174.17 115.69,283.58l0 2933.71c0,109.42 -38.4,202.77 -115.69,279.57 -77.3,77.55 -166.64,116.19 -268.53,116.19 -102.14,0 -187.97,-30.12 -257.48,-89.84 -70.02,-59.73 -116.95,-136.52 -141.79,-231.38 -303.66,214.07 -634.67,321.23 -992.79,321.23 -502.67,0 -924.53,-181.95 -1265.33,-545.33z"/>
  </g>
  <g id="_1740586632960">
   <path class="fil1" d="M2877.49 49836.41l2373.57 0 -1186.78 -3150.29 -1186.78 3150.29zm3692.36 3516.69l-717.99 -1905.03 -3560.35 0 -718.24 1905.03c-136.77,341.81 -373.43,512.71 -710.46,512.71 -337.04,0 -578.71,-119.46 -725.27,-359.12 -146.56,-239.16 -175.92,-485.35 -88.09,-739.83l3238.37 -8629.97c68.01,-156.35 173.16,-283.33 314.95,-381.21 141.54,-97.37 295.38,-141.54 461.51,-131.75 371.17,-19.57 629.91,151.58 776.47,512.96l3238.37 8629.97c87.84,254.47 58.47,500.66 -87.84,739.83 -146.56,239.67 -388.48,359.12 -725.52,359.12 -336.79,0 -569.17,-170.9 -695.91,-512.71z"/>
   <path class="fil1" d="M27405.46 43843.76c156.1,156.35 234.65,346.83 234.65,571.18 0,224.86 -80.56,417.6 -241.92,578.96 -161.12,161.12 -349.33,241.67 -564.16,241.67l-2329.65 0 0 7824.39c0,224.86 -78.3,415.34 -234.4,571.43 -156.6,156.35 -346.83,234.4 -571.43,234.4 -224.86,0 -415.59,-78.05 -571.68,-234.4 -156.35,-156.1 -234.4,-346.57 -234.4,-571.43l0 -7824.39 -2314.84 0c-225.11,0 -415.59,-80.56 -571.68,-241.67 -156.35,-161.37 -234.4,-354.1 -234.4,-578.96 0,-224.36 78.05,-414.83 234.4,-571.18 156.1,-156.35 346.57,-234.65 571.68,-234.65l6256.4 0c224.61,0 415.09,78.3 571.43,234.65z"/>
   <path class="fil1" d="M30159.98 44414.95c0,-224.36 78.3,-414.83 234.4,-571.18 156.35,-156.35 346.57,-234.4 571.68,-234.4 224.61,0 417.34,78.05 578.71,234.4 161.12,156.35 241.92,346.83 241.92,571.18l0 8645.03c0,224.61 -80.81,415.34 -241.92,571.43 -161.37,156.35 -354.1,234.4 -578.71,234.4 -225.11,0 -415.34,-78.05 -571.68,-234.4 -156.1,-156.1 -234.4,-346.83 -234.4,-571.43l0 -8645.03z"/>
   <path class="fil1" d="M38013.74 53807.33c-29.36,0 -73.28,-29.36 -132,-88.09l-14.56 0c-10.04,-9.54 -43.92,-33.88 -102.64,-73.03 -9.79,-19.57 -24.34,-41.66 -43.92,-66 -19.57,-24.34 -34.38,-41.66 -43.92,-51.45 -9.79,-9.54 -22.08,-31.62 -36.64,-65.75 -14.81,-34.13 -31.62,-60.98 -51.2,-80.56l-3589.97 -8557.19c-87.84,-195.25 -90.35,-397.77 -7.28,-608.07 82.82,-209.8 231.89,-353.85 446.96,-432.15 195.25,-87.84 395.51,-90.09 600.8,-7.28 205.03,83.07 351.34,227.12 439.43,432.15l2857.17 6784.17 2857.17 -6784.17c88.09,-205.03 236.91,-349.08 446.96,-432.15 210.05,-82.82 412.58,-80.56 608.32,7.28 205.03,78.3 349.08,222.35 432.15,432.15 82.82,210.3 85.33,412.83 7.28,608.07l-3619.08 8557.19 -58.72 117.2c0,9.79 -5.27,19.57 -14.81,29.11l-190.48 190.48c-19.57,19.83 -51.2,39.15 -95.11,58.72 -43.92,19.83 -109.92,43.92 -197.76,73.28l-29.36 0c-39.15,9.79 -90.35,14.56 -153.59,14.56 -63.74,0 -109.92,-4.77 -139.28,-14.56l-29.36 0c-39.15,-19.32 -78.3,-29.36 -117.2,-29.36l-14.81 -14.56 -14.56 0z"/>
   <path class="fil1" d="M63977.69 50744.88c0,-742.09 -859.78,-1274.62 -2578.85,-1597.1l-29.36 0c-761.91,-146.31 -1421.18,-351.59 -1978.06,-615.35 -556.88,-263.76 -964.69,-603.05 -1223.68,-1018.39 -258.49,-415.09 -387.98,-842.47 -387.98,-1282.15 0,-849.75 373.43,-1548.17 1120.78,-2095 747.36,-547.09 1609.4,-820.89 2586.38,-820.89 429.64,0 869.07,73.53 1318.54,219.84 449.22,146.56 784,283.58 1003.84,410.57 219.59,126.99 510.2,307.42 871.83,542.07 165.88,116.95 270.78,278.31 314.95,483.35 43.92,205.28 9.54,393.5 -102.64,564.16 -112.43,171.15 -271.04,278.31 -476.07,322.48 -205.28,43.92 -395.76,7.28 -571.68,-110.17 -459,-312.19 -866.81,-546.84 -1223.42,-702.94 -356.61,-156.35 -735.06,-234.65 -1135.34,-234.65 -644.96,0 -1172.23,151.58 -1582.55,454.24 -410.32,302.91 -615.35,625.14 -615.35,966.94 0,166.39 38.65,307.93 117.2,425.12 273.29,449.22 1010.86,786.25 2212.45,1010.86l29.11 0c820.64,166.39 1494.71,371.42 2022.23,615.6 1211.13,595.78 1816.94,1416.41 1816.94,2461.4 0,908.47 -400.78,1653.32 -1201.59,2234.54 -801.06,581.22 -1724.34,871.83 -2769.33,871.83 -1279.89,-9.54 -2529.92,-498.15 -3751.08,-1465.1 -156.35,-126.99 -246.69,-297.89 -271.04,-512.96 -24.59,-214.57 26.85,-400.28 153.84,-556.88 126.99,-156.1 297.89,-246.44 512.96,-271.04 214.57,-24.09 400.28,31.62 556.88,168.64 937.58,761.66 1870.4,1137.85 2798.44,1128.06 732.8,0 1326.07,-168.64 1780.3,-505.43 454.24,-337.04 681.35,-700.68 681.35,-1091.67z"/>
   <path class="fil2" d="M12998.41 43832.22c65,20.83 129.24,41.66 194.24,58.72 518.73,140.79 897.93,587.24 929.8,1098.45 34.88,562.4 -258.74,1074.35 -759.9,1268.1 -478.08,184.71 -943.35,149.32 -1344.64,-195.25 -400.53,-343.56 -535.8,-792.03 -399.78,-1293.94 137.02,-503.93 485.1,-810.35 1004.09,-909.22 17.57,-4.27 33.63,-17.32 50.44,-26.85l325.74 0z"/>
   <path class="fil3" d="M12903.3 49554.33c-48.94,-19.83 -100.13,-32.12 -151.83,-36.89 -224.36,-21.58 -431.4,99.88 -515.22,302.15l-34.38 82.82c-116.44,281.07 -236.91,571.43 -348.83,859.78 -112.93,289.61 -224.86,583.98 -333.02,869.07 -78.55,206.04 -156.6,412.33 -235.65,617.61 -72.78,187.47 -149.07,377.19 -222.85,560.39 -27.1,67.51 -54.46,135.02 -81.31,202.77l-8.78 21.58 -24.09 252.72 32.37 67.01c9.79,20.58 19.57,41.16 29.61,59.73 81.06,154.59 237.16,257.48 417.09,274.55 179.94,17.07 347.83,-54.96 449.22,-192.74 58.98,-80.31 104.15,-160.36 134.51,-238.66 376.69,-978.49 773.2,-2013.69 1178.5,-3076.76 95.62,-247.95 -29.61,-522.75 -285.34,-625.14z"/>
   <path class="fil3" d="M11001.78 53276.55l25.85 53.71c9.79,20.58 19.07,39.9 28.36,57.72 73.28,139.28 213.57,231.13 375.43,246.69 162.87,15.06 311.19,-49.19 401.28,-171.4 56.21,-76.04 99.13,-152.33 127.99,-226.11 376.44,-978.24 772.95,-2013.94 1178,-3076.5 85.33,-220.84 -26.85,-465.53 -255.23,-556.88 -44.42,-17.82 -90.35,-29.11 -136.77,-33.38 -203.78,-19.83 -387.23,90.85 -461.51,269.53l-41.66 100.89c-113.68,274.8 -231.38,559.14 -340.8,840.46 -112.93,289.86 -224.86,583.98 -333.02,869.07l-29.86 78.55c-68.51,179.94 -136.77,359.87 -205.79,539.31 -71.27,183.95 -146.31,369.91 -218.59,550.1l-91.85 228.12 -21.83 230.13zm477.07 466.53l0 0c-19.07,0 -38.15,-0.75 -57.47,-2.51 -197.76,-18.82 -369.66,-132 -459.25,-302.66 -10.04,-18.82 -20.08,-39.9 -30.37,-61.23l-38.9 -80.56 29.11 -282.33 94.36 -235.4c72.53,-179.44 147.06,-365.15 218.08,-548.85 69.01,-178.93 137.53,-358.62 205.79,-538.56l30.12 -78.55c108.16,-285.09 220.09,-579.71 333.02,-869.82 109.92,-282.33 227.62,-567.17 341.81,-842.72l41.91 -100.63c91.85,-221.85 320.73,-359.12 569.68,-334.78 56.47,5.02 112.43,18.82 166.39,40.66 283.08,113.18 421.61,417.85 314.95,693.65 -404.8,1062.56 -801.56,2098.02 -1178.25,3076.76 -32.12,82.57 -79.8,167.14 -141.29,250.96 -101.64,138.03 -261.75,216.58 -439.68,216.58z"/>
   <path class="fil2" d="M16732.93 51636.79c-513.21,-670.06 -1018.89,-1344.14 -1535.62,-2013.19 -274.3,-355.61 -556.63,-706.95 -839.21,-1057.29 1028.43,-1299.46 2053.85,-2599.18 3077.26,-3901.16 74.03,-94.36 133.26,-204.28 180.44,-315.46 146.06,-347.33 -172.91,-734.05 -569.93,-699.67 -47.93,4.02 -95.36,11.04 -145.05,16.56 -78.8,58.72 -158.86,117.95 -238.66,177.43 -265.01,346.57 -527.52,694.4 -797.55,1038.97 -521.99,663.79 -1050.01,1321.55 -1570.25,1988.6 -330.26,423.12 -651.74,855.52 -972.97,1286.16 -94.11,125.98 -119.21,276.05 -84.57,414.08 -33.63,137.78 -8.03,286.85 86.58,409.82 1058.54,1391.32 2118.34,2779.87 3180.9,4166.67 73.03,95.11 165.88,180.94 263.51,255.98 304.41,233.39 779.98,48.69 858.53,-327.5 9.54,-45.17 16.06,-91.1 24.34,-138.53 -35.89,-89.84 -72.28,-180.19 -108.92,-270.78 -270.03,-343.06 -541.82,-683.86 -808.84,-1030.69z"/>
   <path class="fil4" d="M16775.34 43958.7l-191.98 251.71c-196.25,257.48 -392.5,514.97 -593.02,770.95 -217.58,276.81 -435.92,552.36 -654.5,827.66 -305.92,385.97 -612.09,771.95 -915.5,1160.94 -301.65,386.23 -601.05,787.26 -890.4,1175.24l-80.56 107.91c-61.74,82.82 -82.31,182.2 -57.72,279.82l9.54 38.4 -9.29 38.4c-23.84,97.37 -3.01,195 57.97,274.55 1087.66,1429.46 2158,2831.32 3181.15,4167.17 58.22,75.29 136.77,151.58 233.89,226.11 60.23,45.93 133.51,70.27 212.31,70.27 159.61,0 351.34,-106.41 392.5,-303.66 6.52,-29.11 11.04,-57.47 15.56,-86.08l0.25 -2.01 -83.32 -207.79 -206.04 -261.25c-197.5,-249.7 -395.01,-499.66 -589.75,-752.88 -213.06,-278.06 -424.37,-556.38 -635.93,-834.94 -298.64,-393.25 -597.03,-786.5 -899.69,-1178.25 -269.53,-349.33 -549.85,-698.17 -836.95,-1054.28l-80.06 -99.38 79.05 -99.88c1112.75,-1406.62 2119.35,-2682.5 3077.01,-3900.9 58.72,-75.04 112.18,-168.9 158.61,-279.07 55.21,-131 2.01,-243.18 -34.63,-298.14 -80.81,-121.97 -225.36,-193.49 -374.18,-179.94 -29.86,2.26 -58.22,5.77 -87.08,9.54l-10.54 1.25 -186.71 138.53zm301.9 9708.59c-0.25,0 0,0 0,0 -149.82,0 -290.36,-46.93 -406.55,-136.27 -119.21,-91.6 -217.83,-187.72 -292.87,-285.09 -1023.91,-1336.36 -2094.25,-2738.21 -3181.66,-4167.67 -111.17,-144.55 -155.09,-327.25 -122.72,-505.93 -33.63,-178.18 9.29,-362.13 119.96,-510.2l80.56 -107.91c290.36,-389.24 590.76,-791.78 894.42,-1180.76 303.91,-389.74 610.58,-776.47 917.25,-1162.94 218.33,-275.05 436.42,-550.1 653.5,-826.16 199.26,-254.72 394.76,-510.95 590.26,-767.68l219.59 -287.6 291.11 -216.33 92.35 -10.79c33.88,-4.27 67.26,-8.53 100.89,-11.04 20.08,-1.76 40.91,-2.51 61.74,-2.51 243.93,0 470.05,120.96 605.06,323.99 122.47,184.45 145.31,402.79 62.74,599.04 -57.47,136.27 -125.23,254.72 -201.52,352.35 -935.57,1190.05 -1917.07,2434.55 -2998.96,3801.78 260.75,323.23 514.97,640.95 761.16,960.42 303.16,392.25 602.3,786.25 901.44,1180.01 211.31,278.31 422.36,556.38 634.93,833.69 193.49,251.71 390.24,500.41 586.74,749.36l234.9 297.64 134.26 334.28 -15.31 88.59c-5.52,34.38 -11.04,67.76 -18.32,100.89 -67.01,322.23 -363.89,556.88 -704.94,556.88z"/>
   <path class="fil1" d="M52287.27 48401.18c396.01,0 718.24,-349.33 718.24,-778.47l0 -818.88 -327.25 -261c-28.61,-22.84 -45.67,-58.98 -45.93,-97.62l-2.01 -426.13c0,-13.8 -10.54,-24.84 -23.09,-24.84 -12.8,0 -22.84,11.04 -22.84,24.84l2.26 2053.6c0,81.06 -60.48,146.56 -135.02,146.56 -74.79,0 -135.27,-65.5 -135.27,-146.56l0 -1171.98 -58.47 0 0 1171.98c0,81.06 -60.48,146.56 -135.27,146.56 -74.53,0 -135.27,-65.5 -135.27,-146.56l0 -2053.6c0,-13.05 -9.54,-23.59 -21.58,-23.59 -11.8,-0.25 -21.83,10.29 -21.83,23.34l-2.26 426.38c0,38.65 -17.32,74.79 -45.93,97.62l-326.75 261 0 818.88c0,429.14 322.23,778.47 718.24,778.47z"/>
   <path class="fil1" d="M53295.88 51831.78l-2610.22 0c-121.72,0 -220.09,-98.38 -220.09,-219.84 0,-121.46 98.38,-220.09 220.09,-220.09l2610.22 0c121.46,0 219.84,98.63 219.84,220.09 0,121.46 -98.38,219.84 -219.84,219.84zm-2522.39 -1670.13l755.64 -227.12c94.36,-28.36 198.26,9.03 251.46,95.62l295.13 482.59c105.4,20.58 202.27,81.56 265.01,178.93 67.26,104.4 123.47,192.99 171.91,269.53 0,0 0.25,0 0.25,0 2.51,3.76 4.77,8.03 7.28,11.8 1.76,3.26 4.02,6.52 5.77,9.54 -0.25,0 -0.25,0.25 -0.25,0.25 42.41,71.27 90.85,153.59 146.56,249.45l-555.87 0 -45.67 0 -801.56 0 -70.02 -187.22 499.16 -305.17 -204.78 -334.78 -593.02 178.43c-116.44,35.13 -239.67,-30.87 -274.3,-147.31 -35.13,-116.7 30.87,-239.41 147.31,-274.55zm659.27 -3552.57l284.09 -226.62 1.76 -364.89c0.75,-158.61 120.46,-287.6 266.77,-287.6l300.65 0 2.26 0 300.65 0c146.56,0 266.02,128.99 266.77,287.85l2.01 364.64 283.83 226.62c50.19,40.15 60.73,116.44 23.84,170.9 -6.27,9.29 -13.55,17.07 -21.33,23.84l0 818.88c0,512.21 -384.22,929.05 -856.77,929.05 -472.56,0 -857.02,-416.84 -857.02,-929.05l0 -818.88c-7.78,-6.78 -15.31,-14.56 -21.33,-23.84 -36.89,-54.46 -26.35,-130.75 23.84,-170.9zm848.99 -1466.35c140.04,0 253.47,113.43 253.47,253.22 0,140.04 -113.43,253.22 -253.47,253.22 -139.53,0 -253.22,-113.18 -253.22,-253.22 0,-139.78 113.68,-253.22 253.22,-253.22zm1224.93 5429.49c50.94,264.01 -121.97,518.98 -385.97,569.93 -263.76,50.94 -518.98,-121.97 -569.93,-386.23 -50.94,-264.01 121.97,-518.98 385.97,-569.93 264.01,-50.69 519.48,122.22 569.93,386.23zm-3342.27 -4404.58l-460.51 390.49c-12.05,14.05 -26.35,26.35 -45.42,33.38 -3.51,1.51 -7.03,1 -10.54,1.51 0,0 -0.25,0 -0.5,0.25 -13.55,3.76 -26.6,5.52 -39.65,4.27 -10.79,-0.5 -21.83,-4.02 -32.12,-7.78 -2.01,-0.5 -4.02,-0.75 -5.77,-1.51 -16.56,-6.78 -32.12,-16.31 -44.17,-30.87 -13.8,-15.81 -20.08,-34.63 -23.59,-53.71l-81.06 -215.57 -252.46 547.09c-17.32,37.39 -41.16,69.26 -69.26,96.12l389.99 332.52c38.4,32.37 57.22,77.55 58.72,124.48 0.5,6.27 -2.01,12.3 -2.01,19.07 -1.25,13.3 -1.25,26.85 -5.27,39.65 -7.03,23.84 -17.57,46.43 -35.13,66l-566.16 637.69c-62.74,70.77 -170.9,77.3 -241.67,14.56 -70.52,-62.24 -76.79,-170.9 -14.3,-241.42l453.48 -511.2 -423.87 -361.13 -238.91 400.28c-6.52,11.54 -16.31,18.82 -25.1,27.86 -11.29,21.58 -26.6,41.66 -47.68,56.72l-685.87 236.4c-75.79,55.96 -182.95,39.9 -239.41,-36.14 -55.96,-75.79 -39.9,-182.7 35.89,-239.41l670.31 -224.36 400.53 -671.57c3.51,-10.54 6.02,-21.33 10.79,-31.87l329.51 -714.23c5.02,-10.79 11.8,-20.33 18.32,-30.62l-257.23 -71.27 -179.69 461.51c-23.09,59.48 -90.35,89.09 -149.57,66 -59.73,-23.34 -89.09,-90.35 -66.25,-149.82l212.81 -546.59c12.8,-32.62 39.15,-54.96 70.27,-65.5 26.1,-15.31 57.72,-20.83 89.34,-12.3l564.66 157.35c8.28,2.51 14.56,7.53 21.58,11.04 32.37,3.76 64.75,11.54 96.12,25.6 72.03,33.38 124.22,91.1 154.59,158.1 9.03,10.29 17.07,21.83 22.34,35.39l147.56 365.4 320.73 -269.28c48.94,-40.91 121.97,-34.38 162.87,14.56 41.16,48.94 61.99,121.72 12.8,162.87zm-1369.73 5848.85c-173.16,0 -313.45,-140.29 -313.45,-313.45 0,-173.16 140.29,-313.45 313.45,-313.45 172.91,0 313.45,140.29 313.45,313.45 0,173.16 -140.54,313.45 -313.45,313.45zm742.09 -258.74l-180.19 331.77 -131.25 242.18 -2.26 3.26c-27.1,50.19 -74.28,74.79 -121.21,75.04 -2.51,0.25 -5.02,0.25 -7.78,0.25 -78.8,0 -142.8,-68.51 -142.8,-152.83 0,-25.6 6.02,-49.94 16.31,-71.02l0 -2.26 61.99 -94.61 219.59 -403.79 -248.7 -414.83 -416.84 0 -248.45 414.83 219.59 403.79 0.25 0c7.53,11.54 17.07,21.33 25.85,31.62 5.27,5.77 10.04,13.05 14.05,20.58 32.12,27.86 52.7,69.52 52.7,115.69 0,84.32 -67.76,152.83 -151.33,152.83 -3.01,0 -6.27,0 -9.29,-0.25 -48.44,1.51 -98.12,-23.34 -126.23,-75.04l-1.76 -3.26 -131.25 -242.18 -180.19 -331.77c-26.85,-48.94 -25.35,-109.67 3.01,-157.6l367.15 -613.09 0 -570.43 1.51 0 0 -21.08c-1,-2.01 -2.01,-4.27 -2.51,-6.52l-320.73 -997.81c-13.3,-41.66 -9.03,-85.33 11.54,-123.22 20.83,-37.89 55.46,-65 97.87,-76.29l21.58 -5.77c13.8,-4.02 28.36,-5.77 42.91,-5.77 73.78,0 140.79,48.18 162.87,117.45l304.16 947.37 111.93 0 304.16 -947.37c22.34,-69.26 89.09,-117.45 162.87,-117.45 14.56,0 29.11,1.76 43.16,5.77l21.33 5.77c42.41,11.29 77.3,38.4 97.87,76.29 20.58,37.89 24.84,81.56 11.29,123.22l-319.97 997.81c-0.75,2.26 -1.76,4.27 -3.01,6.27l0 27.35 -0.25 0 0 564.41 367.4 613.09c28.36,47.93 29.86,108.67 3.01,157.6zm32.62 -6676.76c178.18,0 322.48,144.55 322.48,322.73 0,178.18 -144.3,322.48 -322.48,322.48 -178.18,0 -322.73,-144.3 -322.73,-322.48 0,-178.18 144.55,-322.73 322.73,-322.73zm860.79 -1608.65c-2768.08,0 -5011.65,2529.92 -5011.65,5383.32 0,2853.15 2243.57,5166.24 5011.4,5166.24 2768.08,0 5011.65,-2313.09 5011.65,-5166.24 0,-2853.4 -2243.57,-5383.32 -5011.4,-5383.32z"/>
  </g>
  <g id="_1775762137296">
   <path class="fil2" d="M27668.21 733.55c258.99,83.32 514.21,166.64 773.2,234.4 2066.9,561.65 3577.67,2339.94 3705.41,4376.97 138.78,2240.81 -1031.69,4280.1 -3028.32,5052.81 -1904.28,735.56 -3758.11,594.77 -5357.47,-778.47 -1596.1,-1368.73 -2135.16,-3156.06 -1592.58,-5155.45 546.09,-2007.42 1932.88,-3228.84 4000.28,-3622.34 70.02,-17.57 134.51,-69.01 201.27,-107.91l1298.21 0z"/>
   <path class="fil3" d="M27288.76 23533.41c-195.25,-79.05 -398.52,-128.49 -604.56,-147.56 -894.17,-85.58 -1718.82,398.77 -2053.35,1204.1l-137.02 329.76c-463.77,1120.28 -943.1,2276.95 -1389.81,3426.09 -449.97,1153.66 -895.67,2327.14 -1326.57,3462.48 -312.95,821.14 -624.64,1642.78 -939.59,2461.15 -289.36,746.85 -593.52,1502.24 -887.14,2232.28 -108.67,269.53 -217.08,538.81 -324.49,807.84l-35.13 86.33 -95.87 1007.1 128.99 266.77c39.4,82.57 77.8,163.88 117.95,238.66 323.23,615.6 944.86,1025.17 1662.6,1092.93 715.99,68.76 1385.04,-218.59 1789.59,-767.18 234.9,-319.97 414.83,-638.94 535.8,-950.88 1501.24,-3898.65 3080.77,-8024.16 4695.19,-12258.84 381.96,-988.78 -117.95,-2083.46 -1136.59,-2491.02z"/>
   <path class="fil3" d="M19712.31 38364.08l102.89 213.32c39.4,82.06 76.04,159.86 113.68,230.63 291.36,554.37 850.25,921.27 1495.97,982.75 648.98,60.23 1239.74,-195.75 1598.86,-682.86 223.1,-303.16 394.26,-606.57 508.94,-900.69 1500.73,-3898.39 3080.77,-8024.16 4694.69,-12258.59 339.8,-879.86 -107.16,-1854.08 -1017.64,-2218.23 -176.68,-71.52 -360.13,-116.44 -545.08,-133.01 -811.6,-79.3 -1542.14,361.38 -1838.02,1073.85l-166.64 401.28c-453.23,1095.44 -922.27,2227.76 -1357.94,3349.55 -449.97,1154.16 -895.67,2326.89 -1326.82,3461.98l-118.95 312.95c-272.54,716.99 -545.33,1433.98 -820.38,2148.96 -283.83,732.8 -582.22,1474.38 -870.83,2192.13l-365.4 908.97 -87.33 917zm1900.76 1859.1l0 0c-75.79,0 -151.58,-3.51 -228.62,-10.79 -788.51,-74.28 -1472.63,-525.51 -1830.24,-1205.61 -39.9,-74.53 -80.06,-158.61 -120.46,-244.18l-155.34 -320.98 116.44 -1124.55 376.19 -938.08c288.6,-714.98 585.74,-1455.06 868.82,-2186.35 274.8,-713.48 547.34,-1429.46 819.63,-2145.95l119.46 -313.45c431.4,-1135.84 877.6,-2309.83 1327.57,-3465.24 437.17,-1125.55 906.97,-2260.14 1361.45,-3357.58l166.64 -401.79c366.9,-883.63 1277.88,-1430.21 2269.92,-1333.85 225.11,20.58 448.71,75.29 663.54,161.87 1128.06,451.22 1679.42,1665.61 1255.05,2764.06 -1613.67,4233.68 -3193.7,8359.69 -4694.69,12258.84 -128.49,329.51 -317.96,666.04 -563.4,1000.07 -404.8,549.85 -1043.24,863.55 -1751.94,863.55z"/>
   <path class="fil2" d="M42547.81 31830.62c-2044.81,-2669.7 -4059.51,-5355.71 -6118.88,-8021.9 -1092.42,-1416.41 -2217.72,-2816.01 -3343.52,-4211.84 4097.15,-5178.03 8183.77,-10356.07 12261.35,-15543.89 294.63,-375.94 530.53,-813.61 717.99,-1257.55 581.97,-1383.03 -687.88,-2923.67 -2270.42,-2786.9 -190.48,15.06 -379.95,43.92 -577.96,66 -314.2,233.89 -632.92,470.05 -951.13,706.2 -1056.03,1381.03 -2101.78,2766.57 -3177.14,4140.07 -2079.7,2645.11 -4183.99,5265.62 -6256.4,7923.52 -1316.03,1685.69 -2596.92,3408.77 -3877.06,5123.83 -375.43,502.92 -475.32,1100.2 -337.29,1650.31 -133.76,548.85 -31.37,1142.87 345.07,1632.49 4218.12,5544.18 8440.25,11076.07 12674.43,16602.18 291.11,378.95 660.27,720.5 1049.76,1019.65 1212.88,929.55 3107.62,194.49 3420.32,-1304.99 38.9,-180.19 63.99,-363.39 97.12,-551.86 -143.05,-357.62 -288.1,-717.74 -433.41,-1079.12 -1075.86,-1366.47 -2159.5,-2724.41 -3222.81,-4106.19z"/>
  </g>
 </g>
</svg>
