<?xml version="1.0" encoding="UTF-8"?>
<!DOCTYPE svg PUBLIC "-//W3C//DTD SVG 1.1//EN" "http://www.w3.org/Graphics/SVG/1.1/DTD/svg11.dtd">
<!-- Creator: CorelDRAW (Versión OEM) -->
<svg xmlns="http://www.w3.org/2000/svg" xml:space="preserve" width="151.445mm" height="66.3288mm" version="1.1" style="shape-rendering:geometricPrecision; text-rendering:geometricPrecision; image-rendering:optimizeQuality; fill-rule:evenodd; clip-rule:evenodd"
viewBox="0 0 15221.91 6666.78"
 xmlns:xlink="http://www.w3.org/1999/xlink"
 xmlns:xodm="http://www.corel.com/coreldraw/odm/2003">
 <defs>
  <style type="text/css">
   <![CDATA[
    .fil0 {fill:#FEFEFE}
    .fil7 {fill:#FEFEFE}
    .fil6 {fill:#003597}
    .fil3 {fill:#1A5D7A}
    .fil9 {fill:#DC0A0A}
    .fil8 {fill:#FFCC29}
    .fil2 {fill:white}
    .fil11 {fill:white}
    .fil5 {fill:#FFCC29;fill-rule:nonzero}
    .fil4 {fill:#003597;fill-rule:nonzero}
    .fil1 {fill:#0F834D;fill-rule:nonzero}
    .fil10 {fill:#FFCC29;fill-rule:nonzero}
   ]]>
  </style>
 </defs>
 <g id="Capa_x0020_1">
  <metadata id="CorelCorpID_0Corel-Layer"/>
  <g id="_2070276852256">
   <path class="fil0" d="M21.95 6348.72l3118.8 -6237.59c34.91,-69.8 101.77,-111.12 179.8,-111.12 78.04,0 144.9,41.32 179.8,111.12l3118.8 6237.59c32.06,64.13 28.89,134.58 -8.8,195.58 -37.69,60.99 -99.29,95.33 -171,95.33l-6237.59 0c-71.7,0 -133.31,-34.34 -171,-95.33 -37.69,-61 -40.87,-131.46 -8.8,-195.58z"/>
  </g>
  <path class="fil1" d="M201.76 6438.62l3118.8 -6237.59 3118.8 6237.59 -6237.59 0zm1559.42 -3118.8m3118.76 0m-1559.38 3118.8"/>
  <g id="_2070276850864">
   <path class="fil2" d="M4548.8 4849.92l713.65 -389.86c89.61,-48.95 177.93,-100.75 267.25,-150.37 60.55,-33.65 121.57,-66.99 183.49,-98.03 43.23,-21.67 97.42,-48.89 144.21,-60.73 35.51,-9 71.2,5.11 90.98,35.95 19.77,30.85 17.69,69.17 -5.32,97.69 -70.16,87 -168.31,171.95 -252.15,246.34 -64.58,57.28 -130.24,113.8 -193.42,172.59 -0.28,0.27 -0.52,0.49 -0.81,0.75l-897.57 813.42c-8.59,7.79 -17.17,15.3 -25.73,22.54 325.98,-114.37 652.05,-228.51 977.33,-344.61 158.82,-56.69 329.4,-133.41 494.04,-166.02 34.29,-6.79 67.47,7.24 86.48,36.58 19.02,29.33 18.26,65.35 -1.94,93.88 -21.82,30.8 -75.21,68.45 -105.97,90.93 -62.71,45.84 -127.21,89.81 -191.56,133.3 -181.86,122.9 -366.25,242.58 -550.57,361.79 -158.06,102.23 -316.49,203.9 -474.88,305.61 -105.71,67.89 -212.03,135.42 -316.76,204.78 -82.46,54.61 -163.12,111.74 -245.42,166.38 -49.49,32.86 -100.08,64.5 -157.33,81.97 -88.6,27.05 -208.43,20.3 -300.85,20.09l-1420.15 -3.19c-37.28,-0.09 -68.97,-23.77 -79.75,-58.9 -19.76,4.58 -39.94,7.35 -60.86,7.32 -68.99,-0.09 -130.78,-31.38 -189.34,-64.66 -100.1,-56.88 -198.33,-121.23 -296.28,-180.34l-992.85 -583.29c-57.79,-33.95 -116.26,-66.86 -173.71,-101.4 -9.65,-5.8 -19.16,-11.82 -28.57,-18 -43.96,-28.89 -87.28,-65.69 -131.48,-92.12 -35.49,-21.22 -50.08,-64.2 -34.86,-102.64 15.24,-38.44 55.31,-59.75 95.7,-50.91l1512.91 331.31 -1598.39 -1226.26c-31.09,-23.85 -41.45,-64.65 -25.51,-100.44 15.95,-35.79 53.21,-55.37 91.73,-48.22 55.43,10.3 113.21,29.66 166.4,48.3 67.15,23.52 133.64,49.44 199.68,75.93 111.39,44.67 221.9,93.15 333.68,136.37l1013.02 391.72c-86.97,-109.93 -173.79,-219.97 -260.29,-330.27 -321.07,-409.4 -642.14,-823.48 -941.6,-1248.98 -2.61,-3.55 -4.97,-7.28 -7.03,-11.19 -20.64,-39.23 -7.21,-87.61 30.73,-110.56 30.56,-18.48 68.35,-15.25 94.97,5.67 1.13,0.88 2.22,1.79 3.3,2.73 3.91,3.42 7.54,7.24 10.83,11.45 33.45,36.68 77.27,75.11 113.32,109.4 88.05,83.75 176.49,167.09 264.92,250.42 257.48,242.64 515.32,484.9 772.69,727.67 29.27,27.61 58.55,55.23 87.82,82.85 -3.96,-21.06 -7.14,-40.71 -9.44,-53.39 -16.84,-92.62 -32.23,-185.59 -47.48,-278.48 -44.92,-273.83 -87.36,-548.19 -128.84,-822.56 -40.55,-268.24 -80.26,-536.77 -117.02,-805.56 -12.82,-93.77 -25.44,-187.7 -36.35,-281.71 -4.82,-41.53 -15.05,-109.09 -11.4,-150.16 3.75,-42.31 38,-74.76 80.45,-76.23 41.09,-1.43 76.53,26.65 84.8,66.5 9.67,32.69 32.77,78.69 46.92,109.95 30.9,68.27 62.78,136.13 94.76,203.9 49.23,104.31 100.18,208.32 148.22,313.11l603.28 1315.69c64.5,-839.25 114.63,-1679.72 198.14,-2517.32 4.28,-42.96 40.09,-75.37 83.26,-75.37 43.17,0 78.98,32.41 83.26,75.37l204.95 2056.08c20.48,205.48 33.59,411.84 50.16,617.81 64.66,-120.7 127.11,-243.05 190,-364.67 98.33,-190.19 196.5,-380.45 295.15,-570.47 108.97,-209.89 218.26,-419.76 330.02,-628.17 40.78,-76.05 81.87,-152.09 124.37,-227.2 23.55,-41.62 50.41,-91.36 79.13,-129.45 22.57,-29.92 60.56,-41.08 95.73,-28.12 35.17,12.97 56.84,46.1 54.6,83.51 -7.91,132.19 -45.7,284.1 -76.89,413.19 -27.91,115.49 -58.69,230.6 -85.1,346.39 -58.18,255.03 -109.17,511.5 -172.57,765.35 -45.69,182.97 -102.1,623.3 -205.16,757.08 -51.09,66.33 -103.23,132.16 -156.01,197.3 48.22,-51.59 96.02,-103.57 143.07,-156.24 171.36,-191.83 351.06,-377.32 529.74,-562.34 206.52,-213.87 417.09,-427.97 613.41,-651.16 27.49,-31.26 72.89,-37.65 107.95,-15.21 35.06,22.44 48.25,66.35 31.37,104.4 -30.16,68 -81.99,140.45 -125.39,201.07 -39.2,54.76 -80.11,108.35 -119.06,163.23 -85.91,121.02 -172.02,241.86 -258.39,362.53 -170.85,238.68 -341.25,477.69 -511.78,716.59zm-659.8 931.4c-0.08,0.09 -0.16,0.19 -0.24,0.28 0.13,-0.04 0.25,-0.09 0.38,-0.13 -0.05,-0.05 -0.1,-0.1 -0.14,-0.15zm-83.3 -743.94c-11.93,2.9 -24.4,2.97 -37.32,0.16 -0.68,-0.15 -1.36,-0.3 -2.03,-0.46 -0.29,16 -1.52,31.47 -3.87,46.44 14.36,-15.42 28.78,-30.79 43.22,-46.13zm-383.3 415.72c-1.44,0.05 -2.87,0.06 -4.31,0.03 0.03,1.56 0.02,3.13 -0.04,4.69l4.35 -4.72zm-295.08 404.08c-0.19,0.18 -0.39,0.36 -0.58,0.54l1.01 0.22c-0.14,-0.25 -0.28,-0.51 -0.42,-0.76zm208.19 114.33c0,2.65 -0.12,5.31 -0.38,7.93 4.41,-1.6 8.83,-3.19 13.25,-4.77 -4.3,-1 -8.58,-2.04 -12.87,-3.16zm-473.42 -171.73l31.6 6.92c-5.83,-5.56 -11.5,-11.24 -17.05,-17.04 -4.5,3.93 -9.37,7.32 -14.55,10.12zm102.2 -829.48c-1.45,-7.61 -2.57,-15.24 -3.43,-22.89 -5.3,1.9 -10.75,3.22 -16.35,3.94 6.59,6.31 13.19,12.63 19.78,18.95z"/>
  </g>
  <g id="_2070276852928">
   <path class="fil3" d="M3326.25 1406.7c-104.61,1049.32 -159.27,2145.98 -255.24,3205.36 -27.52,303.81 -66.78,347.58 54.23,473.28 64.18,66.68 205.43,260.63 293.45,283.94 68.5,-61.69 95.72,-96.45 152.25,-154.03 56.25,-57.27 110.09,-72.78 111.75,-180.72 2.09,-135.39 -38.19,-372.55 -56.96,-515.8 -45.16,-344.56 -62.7,-708.35 -94.53,-1055.94l-204.95 -2056.08z"/>
   <path class="fil3" d="M3786.13 6441.2c341.26,-0.97 256.59,10.8 657.2,-254.52 272.03,-180.17 1556.7,-988.98 1617.67,-1075.03 -140.93,27.92 -341.14,112.43 -482.17,162.75 -547.34,195.39 -2921.67,1017.88 -3212.86,1163.62l1420.15 3.19z"/>
   <path class="fil3" d="M2933.03 4868.24c14.09,-178.65 92.72,-772.17 39.9,-908.61l-607.42 -1324.73c-47.91,-104.59 -288.68,-600.21 -295.75,-644.71 -10.39,117.13 336.25,2382.83 364.92,2433.02 33.98,59.48 435.16,434.39 498.35,445.02z"/>
   <path class="fil3" d="M455.9 5358.49c39.47,23.6 98.69,73.23 160.21,110.22 52.32,31.44 110.39,64.26 172.99,100.96l992.85 583.29c489.88,295.61 372.93,273.18 716.75,137.74 133.04,-52.41 259.68,-101.08 380.67,-148.47 125.25,-49.06 305.2,-98.66 372.24,-171.5l-2795.71 -612.23z"/>
   <path class="fil3" d="M3786.13 4955.77c74.35,-49.46 361.22,-412.92 441.47,-517.09 84.51,-109.72 143.38,-538.48 190.27,-726.29 65,-260.19 113.13,-504.88 172.18,-763.69 46.49,-203.83 149.11,-563.19 160.04,-745.96 -106.61,141.33 -857.91,1622.54 -1015.55,1916.23 -86.03,160.33 -39.01,268.19 -14.54,424.1 20.21,128.92 5.71,315.47 66.14,412.71z"/>
   <path class="fil3" d="M3051.23 5812.46c57.03,-42.83 261.64,-289.98 282.96,-356.92 -106.45,-144.2 -2287.25,-2171.46 -2301.75,-2199.47 477.35,678.5 1189.56,1562.07 1739.97,2257.96 90.22,114.04 148.99,243.5 278.83,298.44z"/>
   <path class="fil3" d="M439.25 4315.42l1617.51 1240.94c99.62,77.28 610.48,169.13 765.34,169.55 -46.7,-99.65 -307.99,-404.27 -404.1,-526.41 -104,-132.21 -97.33,-166.07 -255.59,-226.22l-1038.3 -401.49c-152.35,-58.53 -529.87,-227.57 -684.86,-256.37z"/>
   <path class="fil3" d="M3201.22 5817.41c4.11,3.4 10.16,7.38 13.15,9.21 204.08,123.97 306.55,68.79 445.07,14.87 172.65,-67.22 211.79,-183.71 304.18,-320.74 90.86,-134.78 163.16,-247.98 246.58,-374.4 145.39,-220.3 133.65,-153.32 264.56,-336.72 183.95,-257.62 338.47,-474.48 517.78,-724.99 93.2,-130.24 163.21,-228.47 258.2,-362.27 64.36,-90.68 194.89,-256.71 236.19,-349.8 -311.02,353.6 -806.13,836.23 -1143.57,1213.98 -190.01,212.7 -381.53,399.97 -573.79,612.44l-568.35 618.42z"/>
   <path class="fil3" d="M3949.34 5723.28c286.52,-87.57 421.18,-111.72 593.58,-267.62l897.57 -813.42c131.38,-122.26 346.81,-297.82 437.44,-410.21 -100.43,25.43 -443.46,228.91 -575.38,301.45l-844.27 461.21c-152,85.41 -507.08,708.13 -508.95,728.57z"/>
  </g>
  <g id="_2070276846352">
   <path class="fil0" d="M11539.09 3591.33c150.32,0 288.77,48.04 395.84,155.1 107.07,107.06 155.11,245.52 155.11,395.85 0,91.09 8.84,181.81 26.72,271.13 14.55,72.77 38.48,144.11 76.43,208.15 30.71,51.81 70.38,93.74 120.78,126.68 49.6,32.43 111.76,41.59 169.93,41.59 58.18,0 120.33,-9.16 169.93,-41.59 50.4,-32.95 90.08,-74.87 120.77,-126.68 37.95,-64.04 61.87,-135.38 76.43,-208.15 17.87,-89.31 26.72,-180.04 26.72,-271.13l0 -3578.03c0,-150.32 48.04,-288.77 155.1,-395.84 107.06,-107.06 245.52,-155.11 395.85,-155.11l1242.26 0c150.32,0 288.78,48.04 395.84,155.11 107.06,107.07 155.11,245.51 155.11,395.84l0 2913.16c0,811.15 -148.63,1672.96 -669.81,2321.7 -513.31,638.95 -1272.91,853.72 -2068.21,853.72 -691.47,0 -1382.44,-158.21 -1893.59,-651.22 -504.02,-486.15 -728.21,-1154.8 -808.07,-1835.92 -17.77,-151.61 22.1,-294.97 125.56,-408.28 104.33,-114.27 244.27,-166.08 397.78,-166.08l1233.5 0z"/>
  </g>
  <path class="fil4" d="M11539.09 3792.35c104.97,0 189.54,32.07 253.7,96.23 64.16,64.15 96.23,148.72 96.23,253.7 0,104.97 10.2,208.5 30.62,310.56 20.41,102.06 53.95,192.46 100.61,271.2 46.66,78.73 107.89,142.89 183.71,192.46 75.82,49.57 169.13,74.36 279.94,74.36 110.8,0 204.12,-24.79 279.94,-74.36 75.82,-49.57 137.05,-113.73 183.7,-192.46 46.66,-78.74 80.2,-169.14 100.61,-271.2 20.41,-102.06 30.62,-205.59 30.62,-310.56l0 -3578.03c0,-104.98 32.08,-189.54 96.23,-253.7 64.16,-64.16 148.73,-96.23 253.7,-96.23l1242.26 0c104.97,0 189.54,32.07 253.69,96.23 64.16,64.16 96.24,148.72 96.24,253.7l0 2913.16c0,944.81 -208.5,1676.75 -625.5,2195.8 -417,519.07 -1054.17,778.6 -1911.49,778.6 -758.18,0 -1342.86,-198.3 -1754.03,-594.88 -411.17,-396.59 -660.49,-968.13 -747.97,-1714.65 -11.66,-99.15 13.13,-182.26 74.36,-249.33 61.24,-67.07 144.34,-100.6 249.33,-100.6l1233.5 0z"/>
  <g id="_2070276846832">
   <path class="fil0" d="M11500.06 3304.75c0,904.02 -289.76,1704.26 -883.82,2386.23 -575.77,660.97 -1353.84,937.11 -2217.86,966.61 -161.53,5.52 -324.47,5.77 -486.1,6.82 -309.99,2.03 -620.01,2.35 -930,2.35 -219.04,0 -439.16,-6.83 -658.1,-13.68 -214.73,-6.71 -430.69,-13.48 -645.53,-13.48 -183.57,0 -329.27,-109.59 -329.27,-302.12 0,-488.81 18.19,-981.07 36.34,-1469.52 17.94,-482.95 36.07,-969.78 36.07,-1453.08 0,-504.06 -18.1,-1011.51 -36.08,-1515.23 -18.1,-507 -36.33,-1017.73 -36.33,-1525.06 0,-179.01 133.18,-287.12 301.33,-310.72l3.18 -0.44 3.2 -0.35c340.31,-36.73 708.37,-35.86 1050.59,-35.86 375.3,0 751.05,1.36 1126.27,9.6 216.67,4.75 441.9,9.07 657.55,30.63 598.82,59.88 1239.6,211.58 1735.83,567.84 425.08,305.18 729.86,720.19 945.36,1193.53 212.98,467.8 327.38,961.85 327.38,1475.93zm-4010.55 -1465.39c-0.64,241.6 -4.83,483.5 -9.01,725.02 -4.48,259.7 -9.02,519.86 -9.02,779.6 0,255.7 4.52,511.82 9.02,767.48 4.22,240.03 8.4,480.44 9.02,720.56 116.72,42.1 419.12,47.6 505.18,47.6 412.33,0 776.23,-120.24 1048.31,-438.16 272.38,-318.28 362.1,-726.41 362.1,-1136.72 0,-409.99 -111.32,-779.44 -392.82,-1082.26 -281.36,-302.66 -634.55,-426.22 -1044.75,-426.22 -82.04,0 -363.26,5 -478.03,43.09z"/>
  </g>
  <path class="fil5" d="M11299.04 3304.75c0,866.07 -277.62,1617.47 -834.38,2254.19 -493.39,568.83 -1182.92,867.58 -2073.13,897.75 -170.5,6.04 -641.25,9.06 -1409.25,9.06 -144.86,0 -362.12,-4.52 -651.81,-13.58 -289.7,-9.06 -506.97,-13.58 -651.81,-13.58 -86.01,0 -128.25,-33.2 -128.25,-101.09 0,-324.4 12.07,-811.75 36.2,-1462.05 24.14,-648.8 36.21,-1136.15 36.21,-1460.55 0,-337.98 -12.07,-846.45 -36.21,-1522.41 -24.13,-675.96 -36.2,-1182.92 -36.2,-1517.89 0,-61.85 42.24,-99.58 128.25,-111.65 209.73,-22.64 552.23,-34.71 1029.02,-34.71 908.31,0 1495.24,13.58 1763.82,39.23 697.07,70.92 1244.78,247.45 1638.59,531.11 371.17,265.55 663.89,636.73 879.64,1113.52 206.71,451.13 309.31,915.86 309.31,1392.64zm-1692.91 0c0,-497.91 -149.37,-903.79 -446.61,-1219.13 -300.26,-327.41 -697.08,-490.37 -1191.98,-490.37 -452.65,0 -678.97,60.36 -678.97,181.06 0,173.51 -3.02,434.54 -9.06,784.59 -6.03,348.54 -9.05,609.57 -9.05,783.08 0,172.01 3.02,428.51 9.05,771.02 6.04,344.01 9.06,602.02 9.06,775.53 0,126.74 235.38,190.12 706.13,190.12 508.48,0 909.83,-168.99 1201.04,-508.48 273.09,-319.88 410.4,-743.85 410.4,-1267.42z"/>
  <g>
   <path class="fil6" d="M10069.32 4001.81c-685.73,-50.39 -1026.42,47.03 -1599.8,551.42 -144.58,127.39 -250.44,286.66 -911.85,282.48 579.59,-357.41 294,-377.49 763.08,-713.02 -828.02,129.89 -645.22,811.21 -1288.73,656.21 56.93,-26.1 119.8,-265.08 172.98,-273.69 308.96,-50.03 190.31,-251.42 588.42,-344.2 -296.05,-73.7 -409.52,148.53 -658.14,120.08 -501.18,37.6 -35.45,-455.55 5.87,-477.69 41.18,-22.38 272.39,-128.5 333.12,-213.38 60.64,-84.45 104.16,-129.82 104.16,-129.82 -330.76,101.49 -413.2,-2.25 -649.91,44.13l-90.85 -54.85c89.88,-92.37 276.71,-259.95 370.88,-404.9 94.23,-145.35 378.77,-445.88 466.18,-522.43 87.46,-76.58 453.92,-278.27 453.92,-278.27 0,0 -248.31,27.4 -446.29,144.93 -198.26,117.67 -282.49,199.21 -282.49,199.21 0,0 90.15,-256.78 415.49,-468.96 325.29,-211.72 669.57,-342.61 812.17,-439.57 60.72,-41.28 149.97,-103.04 236.79,-166.96 373.1,-665.69 1166.41,-1013.72 1932.13,-795.03 894.77,255.55 1403.57,1221.12 1157.44,2082.9 -246.12,861.78 -1045.93,1263.03 -1884.58,1201.42z"/>
   <path id="_1" class="fil7" d="M10058.01 4162c-322.61,-23.7 -561.14,-13.63 -779.83,59.5 -219.71,73.45 -431.89,214.31 -702.49,452.34 -17.76,15.65 -27.05,24.22 -36.4,32.86 -151.42,139.86 -317.66,293.39 -982.25,289.2 -54.27,-0.21 -102.12,-27.4 -130.94,-68.8 -105.62,44.09 -239.61,53.72 -431.15,7.59 -86.04,-20.46 -139.19,-106.82 -118.72,-192.86 11.87,-49.92 45.93,-88.76 89.24,-108.59l-0.04 -0.08c26.33,-12.07 -9.69,-24.15 6.72,-59.86 21.35,-46.43 42.56,-92.56 69.29,-131.14 -79.25,-5.45 -139.8,-25.56 -185.2,-56.18 -83.2,-56.12 -114.83,-134.72 -111.66,-224.68 2.18,-61.77 23.17,-124.27 53.86,-183.24 73.73,-141.58 234,-296.32 266.09,-315.31l-0.03 -0.06c3.91,-2.12 10.6,-5.54 19.29,-9.91 -38.03,-1.45 -78.14,0.16 -124.49,9.24 -41.37,8.07 -82.13,-0.51 -115.35,-21.09l-89.21 -53.86c-75.98,-45.79 -100.45,-144.52 -54.66,-220.5 8.31,-13.79 18.38,-25.88 29.73,-36.16 19.77,-20.09 42.96,-42.78 68.35,-67.63 90.85,-88.91 212.71,-208.17 275.94,-305.5 45.73,-70.53 125.29,-166.97 208.25,-260.08 -43.83,-47.17 -53.92,-113.98 -30.85,-170.18 17.62,-44.94 136.3,-320.49 476.52,-542.38 196.12,-127.64 397.28,-226.16 560.37,-306.03 108.55,-53.16 198.93,-97.43 249.29,-131.67 23.41,-15.91 61.6,-42.34 122.25,-85.1 27.34,-19.28 55.12,-39.09 81.91,-58.54 206.9,-352.96 523.24,-621.28 890.93,-772.57 370.7,-152.54 793.12,-186.16 1207.65,-67.76 485.97,138.8 867.94,468.24 1096.77,880.03 233.01,419.33 307.38,924.63 171.24,1401.38 -129.39,453.07 -399.3,790.77 -747.15,1012.52 -372.99,237.79 -833.53,339.63 -1303.28,305.12zm-3026 616.9c56.93,-26.1 119.8,-265.08 172.98,-273.69 308.96,-50.03 190.31,-251.42 588.42,-344.2 -296.05,-73.7 -409.52,148.53 -658.14,120.08 -501.18,37.6 -35.45,-455.55 5.87,-477.69 41.18,-22.38 272.39,-128.5 333.12,-213.38 60.64,-84.45 104.16,-129.82 104.16,-129.82 -330.76,101.49 -413.2,-2.25 -649.91,44.13l-90.85 -54.85c89.88,-92.37 276.71,-259.95 370.88,-404.9 94.23,-145.35 378.77,-445.88 466.18,-522.43 87.46,-76.58 453.92,-278.27 453.92,-278.27 0,0 -248.31,27.4 -446.29,144.93 -198.26,117.67 -282.49,199.21 -282.49,199.21 0,0 90.15,-256.78 415.49,-468.96 325.29,-211.72 669.57,-342.61 812.17,-439.57 60.72,-41.28 149.97,-103.04 236.79,-166.96 373.1,-665.69 1166.41,-1013.72 1932.13,-795.03 894.77,255.55 1403.57,1221.12 1157.44,2082.9 -246.12,861.78 -1045.93,1263.03 -1884.58,1201.42 -685.73,-50.39 -1026.42,47.03 -1599.8,551.42 -144.58,127.39 -250.44,286.66 -911.85,282.48 579.59,-357.41 294,-377.49 763.08,-713.02 -828.02,129.89 -645.22,811.21 -1288.73,656.21z"/>
  </g>
  <path class="fil8" d="M9964.65 3749.27c767.99,169.13 1543.56,-239.39 1762.02,-1004.32 218.46,-764.93 -251.53,-1579.81 -996.03,-1792.43 -744.51,-212.62 -1425.06,188.2 -1741.19,847.5 -56.35,117.52 -274.28,151.35 -392.95,212.56 -179.76,93.07 -237.28,220 -237.28,220 0,0 47.36,-37.55 156.6,-88.1 108.75,-50.71 240.75,-52.72 240.75,-52.72 0,0 -200.82,85.43 -249.97,120.6 -49.36,34.8 -210.78,175.08 -266.48,244.66 -55.2,69.69 -160.26,146.57 -211.48,189.48 -50.73,43.05 -157.49,55.43 -302.42,115.27 -144.66,59.68 -244.12,230.18 -244.12,230.18 0,0 35,-13.66 83.04,-39.43 47.79,-25.61 139.51,-30.44 192.25,-35.83 52.92,-5.06 143.58,15.15 187.12,23.49 43.12,8.15 156.79,-14.87 156.79,-14.87 0,0 -24.69,21.09 -60.02,61.61 -35.05,40.34 -160.99,83.71 -183.7,93.22 -22.46,9.33 -143.06,35.57 -360.63,87.7 -217.79,51.75 -311.04,207.24 -311.04,207.24 0,0 42.4,-12.38 66.75,-22.85 24.09,-10.29 98.64,-15.46 218.82,-18.81 103.14,-2.96 372.63,15.84 535.24,8.68 -51.59,16.16 -115.3,34.28 -188.9,64.44 -144.66,59.68 -244.22,230.64 -244.22,230.64 0,0 35.06,-14.18 82.86,-39.74 47.96,-25.31 139.48,-30.45 192.71,-35.68 52.92,-5.07 143.4,14.84 186.67,23.31 43.29,8.5 157.25,-14.71 157.25,-14.71 0,0 -24.7,21.13 -60.2,61.3 -35.33,40.49 -161.27,83.9 -183.72,93.22 -22.72,9.49 -143.14,36.08 -360.93,87.84 -217.76,51.8 -311.01,207.25 -311.01,207.25 0,0 42.38,-12.34 66.92,-22.47 24.09,-10.31 98.47,-15.84 218.92,-19.3 120.46,-3.49 467.82,22.74 606.99,3.01 139.17,-19.79 315.9,-125.48 410.66,-193.66 95.04,-68.33 275.59,-94.64 275.59,-94.64 0,0 -42.12,40.17 -76.68,81.95 -34.58,41.81 -81.43,88.27 -170.95,166 -89.46,77.71 -257.77,91.13 -257.77,91.13 0,0 89.78,22.48 199.51,34.5 109.96,12.33 241.59,-28.3 385.49,-131.61 203.1,-145.21 786.57,-238.94 1028.74,-185.62z"/>
  <path class="fil9" d="M9207.82 2025.57c-177.38,621.1 182.34,1268.43 803.43,1445.82 621.1,177.38 1268.43,-182.34 1445.81,-803.43 177.39,-621.11 -182.33,-1268.43 -803.42,-1445.82 -621.11,-177.38 -1268.44,182.34 -1445.82,803.43z"/>
  <path class="fil10" d="M7713.66 5084.24c-375.49,692.68 -497.55,1381.51 -731.38,1381.51 -144.85,0 -362.13,-4.52 -651.81,-13.58 -289.7,-9.05 -506.97,-13.58 -651.81,-13.58 -86.01,0 -128.25,-33.2 -128.25,-101.09 0,-324.39 12.07,-811.75 36.21,-1462.04 24.13,-648.81 36.2,-1136.16 36.2,-1460.56 0,-337.98 -12.07,-846.45 -36.2,-1522.41 -24.14,-675.96 -36.21,-1182.91 -36.21,-1517.88 0,-61.86 42.24,-99.6 128.25,-111.66 209.73,-22.64 552.23,-34.7 1029.02,-34.7 908.32,0 1495.24,13.58 1511.86,703.11 -704.63,663.88 -930.96,724.23 -930.96,844.94 0,173.52 -3.01,434.55 -9.06,784.59 -6.03,348.54 -9.05,609.57 -9.05,783.09 0,172 3.02,428.51 9.05,771 6.05,344.03 9.06,602.03 9.06,775.54 0,126.74 247.5,171.64 425.09,193.7z"/>
  <path class="fil11" d="M7283.08 2318.78l201.15 -5.33 5.32 2533 -201 12.33c-21.29,-843.44 -30.86,-1691.27 -5.47,-2540z"/>
 </g>
</svg>
